PathFileType	4	(X/Y/Z)	C:/Users/beibeiliu/ov580/test_trc/User3\sequence.27_training_dense_left.trc
DataRate	CameraRate	NumFrames	NumMarkers	Units	OrigDataRate	OrigDataStartFrame	OrigNumFrames
120	120	17	19	mm	120	32	62
Frame#	Time	ThumbCMC			ThumbMCP			ThumbIP			ThumbTip			IndexMCP			IndexPIP			IndexTip			MiddleMCP			MiddlePIP			MiddleTip			RingMCP			RingPIP			RingTip			PinkyMCP			PinkyPIP			PinkyTip			BackHand1			BackHand2			BackHand3	
		X0	Y0	Z0	X1	Y1	Z1	X2	Y2	Z2	X3	Y3	Z3	X4	Y4	Z4	X5	Y5	Z5	X6	Y6	Z6	X7	Y7	Z7	X8	Y8	Z8	X9	Y9	Z9	X10	Y10	Z10	X11	Y11	Z11	X12	Y12	Z12	X13	Y13	Z13	X14	Y14	Z14	X15	Y15	Z15	X16	Y16	Z16	X17	Y17	Z17	X18	Y18	Z18	
31	0.258333	-184.394	23.3785	0.339201	-175.68	40.4361	-24.25	-166.996	48.9844	-45.9204	-162.788	63.6501	-64.1428	-134.737	2.72141	-54.0788	-115.013	20.1617	-37.8823	-136.602	19.861	-10.3031	-124.561	-12.5514	-45.7403	-109.361	5.63284	-24.3165	-141.234	5.47498	-0.49353	-121.608	-30.0022	-31.7134	-103.464	-11.1211	-18.7815	-125.257	0.556898	6.09008	-130.708	-53.4109	-21.5206	-112.03	-58.1839	-37.4415	-97.5655	-59.79	-50.4424	-174.326	-41.9418	-7.22306	-188.254	-33.1737	21.166	-192.067	-7.96047	-9.43776	
32	0.266667	-196.859	19.8723	-0.356373	-196.756	35.4006	-22.8888	-196.657	49.9012	-48.1811	-194.139	59.6548	-66.5346	-150.988	18.1895	-56.1849	-132.041	41.3676	-39.6255	-149.416	31.6522	-12.4477	-130.893	5.1977	-46.9653	-118.702	30.9341	-29.2075	-147.799	19.1653	-3.94899	-121.795	-5.27835	-37.5668	-107.292	17.5963	-23.4555	-129.496	20.5307	2.29918	-117.278	-31.2116	-24.741	-104.108	-26.3332	-42.0183	-86.0186	-23.8971	-57.9938	-161.641	-36.9544	-7.97872	-177.719	-33.3947	21.2694	-188.186	-15.1754	-5.03967	
33	0.275	-209.185	10.1714	1.70562	-213.727	23.5811	-22.8854	-218.66	35.6784	-50.8534	-221.69	45.0858	-64.5035	-162.059	20.4396	-57.0713	-152.04	48.4816	-42.9119	-166.309	33.2486	-15.9686	-143.324	18.3862	-52.3833	-137.875	43.5973	-34.9197	-157.978	25.5861	-7.2261	-129.513	9.84365	-43.9471	-122.308	34.2665	-31.2831	-142.285	29.9421	-2.62976	-116.163	-14.5581	-34.1314	-107.548	-5.74451	-49.4638	-92.5395	-3.16049	-64.7044	-158.691	-31.8229	-10.9754	-168.135	-35.2101	16.5809	-188.508	-22.1521	-6.70609	
34	0.283333	-213.192	-3.95001	5.0464	-225.938	7.51177	-18.1141	-234.795	14.5843	-43.0914	-241.633	21.5129	-63.5133	-181.774	10.3542	-60.5528	-174.763	40.8673	-45.7913	-180.09	26.9803	-20.1792	-160.283	13.4359	-59.6367	-158.02	39.7946	-40.8125	-170.494	15.613	-11.4212	-141.486	5.46262	-51.421	-143.092	36.6917	-41.9838	-155.493	29.1014	-10.5722	-126.744	-12.6469	-36.9286	-120.279	-4.32858	-60.5085	-113.008	1.91591	-79.657	-159.095	-35.423	-11.799	-164.238	-38.5916	20.7819	-188.456	-31.6132	-4.24134	
35	0.291667	-218.306	-17.4932	10.7302	-231.732	-14.3168	-16.7233	-243.874	-11.71	-38.4556	-254.872	-7.79982	-59.1942	-198.14	-13.7623	-63.1782	-196.315	19.6944	-53.4401	-194.132	9.92922	-25.3728	-172.408	-9.58226	-64.3868	-176.191	19.7197	-51.4503	-180.907	3.62407	-15.9864	-155.072	-13.8427	-58.2803	-157.988	18.457	-53.5281	-166.188	18.066	-23.1341	-138.198	-29.3691	-49.2958	-136.357	-23.5502	-70.2297	-130.562	-19.0281	-87.8339	-159.612	-49.6188	-11.5696	-160.835	-47.5441	21.3102	-191.491	-44.0069	3.13492	
36	0.3	-220.536	-28.6843	16.552	-235.15	-29.6805	-9.25994	-250.966	-30.6192	-29.7894	-269.163	-30.261	-47.5184	-207.518	-40.8758	-57.6498	-204.377	-9.52845	-60.8962	-198.128	-8.84478	-27.4895	-188.402	-40.6129	-61.534	-189.077	-7.71807	-60.115	-182.653	-11.9613	-20.9372	-168.855	-42.9697	-57.1314	-169.57	-12.8007	-62.7921	-174.794	-3.07486	-27.0456	-154.102	-54.3763	-49.8573	-155.626	-52.7123	-69.9546	-152.049	-53.212	-93.5263	-163.962	-65.0403	-3.07081	-163.423	-58.6409	24.7078	-195.433	-57.5867	11.3995	
37	0.308333	-221.495	-25.8816	20.9815	-240.701	-26.5816	-2.04687	-257.827	-25.4328	-19.7802	-276.054	-24.2315	-36.2004	-223.329	-48.2099	-51.0123	-213.576	-19.0889	-55.1916	-206.453	-16.2353	-23.0372	-203.293	-56.2944	-52.4397	-196.047	-24.0353	-57.8536	-187.66	-22.4656	-20.6277	-184.901	-60.9809	-51.6247	-182.064	-28.429	-59.4553	-175.085	-17.2766	-26.2878	-169.978	-74.778	-39.2098	-174.792	-75.6934	-62.55	-181.903	-77.9378	-81.4523	-182.851	-73.2836	7.44596	-169.673	-65.4571	32.0801	-210.059	-59.2832	20.7771	
38	0.316667	-220.108	-9.59944	26.1406	-240.21	1.43605	5.54385	-260.413	6.72548	-13.149	-270.97	10.3356	-30.3286	-242.666	-34.8539	-37.6644	-222.001	-9.57898	-49.3459	-206.069	-11.517	-20.4679	-229.362	-46.6599	-43.4222	-206.227	-23.6157	-53.3348	-193.715	-23.525	-14.5356	-213.3	-58.3177	-44.3474	-195.287	-35.703	-56.1773	-182.242	-23.1575	-27.712	-204.499	-76.8137	-32.608	-209.686	-80.0352	-52.984	-219.575	-82.3073	-76.81	-204.347	-70.3481	14.444	-193.219	-60.8914	38.8156	-224.874	-43.4728	31.0799	
39	0.325	-211.702	9.29594	27.8657	-222.361	23.7719	6.77906	-240.912	42.1271	-13.7131	-252.954	53.7509	-31.9768	-245.361	-3.29499	-37.2176	-219.835	5.40804	-48.7169	-203.244	0.0757361	-16.8825	-240.062	-24.551	-42.3592	-210.328	-13.2332	-49.6544	-196.764	-16.3087	-16.7175	-234.775	-38.6315	-38.0072	-207.457	-29.546	-51.7916	-187.906	-24.8314	-23.0331	-236.917	-59.6623	-27.4486	-244.518	-58.4373	-47.0986	-252.926	-55.8342	-69.7857	-231.969	-49.0377	21.5092	-211.666	-50.111	42.6544	-230.454	-16.1618	36.4526	
40	0.333333	-194.743	29.1413	28.2641	-199.177	44.1186	5.68599	-204.075	65.7206	-13.582	-206.757	80.3876	-31.784	-233.711	28.3213	-35.8582	-204.832	22.6779	-45.5819	-194.023	9.29414	-18.178	-238.81	8.77226	-39.1682	-208.951	3.75507	-49.5272	-195.146	-1.3506	-12.227	-242.684	-9.66366	-36.8055	-215.462	-12.2195	-51.9001	-194.122	-14.4046	-22.5155	-252.58	-23.1958	-21.2764	-260.628	-20.8163	-43.2617	-268.073	-11.5726	-63.2427	-246.272	-19.5884	20.6037	-226.724	-26.5971	45.7316	-227.797	8.78609	38.0939	
41	0.341667	-174.79	35.5234	31.8036	-168.95	48.2969	9.55221	-163.42	73.3281	-14.7597	-163.705	84.1944	-33.5755	-208.26	58.2284	-29.2925	-187.819	39.9637	-45.3847	-183.073	20.1751	-18.712	-223.08	41.8301	-37.6704	-198.295	23.2817	-47.7666	-193.312	6.68157	-12.1118	-237.499	27.8556	-34.4982	-213.295	15.3571	-50.7542	-195.58	0.97099	-25.5504	-255.054	18.6696	-22.2474	-257.455	27.6662	-42.3284	-263.027	37.4147	-64.8199	-241.126	19.3788	23.5121	-227.826	3.87262	46.3159	-210.597	34.0487	40.8526	
42	0.35	-161.188	36.2597	25.6475	-143.838	48.7322	6.55106	-138.445	65.0904	-19.8585	-132.793	73.0576	-38.3998	-180.378	73.1279	-31.0844	-169.952	44.1678	-46.6294	-171.221	26.8387	-17.0698	-200.846	61.5194	-40.1399	-188.337	34.1567	-49.9795	-183.996	18.7552	-11.3365	-220.259	54.922	-35.7865	-207.734	30.754	-52.8545	-194.267	12.7811	-28.8246	-241.294	52.7087	-23.291	-241.325	63.5372	-42.9825	-242.642	74.1854	-62.7526	-225.549	46.277	23.7544	-221.25	25.572	44.3271	-193.539	47.8267	37.8326	
43	0.358333	-146.836	32.5822	17.9337	-132.804	40.2155	-5.39753	-118.887	48.9443	-28.27	-110.546	57.4151	-52.9965	-165.62	67.8475	-45.0579	-156.24	39.9286	-58.2874	-160.696	22.4402	-29.3882	-185.792	64.2062	-47.033	-174.72	31.5984	-57.5384	-176.857	19.5091	-21.8346	-201.497	61.1621	-47.8459	-196.9	36.3337	-61.2912	-191.252	14.2706	-33.1361	-221.148	68.053	-32.0853	-224.431	74.9161	-51.3081	-225.151	82.9861	-70.3761	-206.663	61.9655	12.9583	-211.337	40.3375	37.5102	-174.234	53.6467	28.5153	
44	0.366667	-138.087	22.8301	11.3575	-116.705	22.2579	-13.7675	-100.828	27.4277	-41.6246	-96.9571	27.9758	-61.5679	-146.72	47.5197	-56.9106	-148.155	16.1986	-65.5846	-152.698	8.93151	-30.5239	-166.945	48.5524	-58.9684	-167.932	15.8104	-65.9283	-166.046	8.4464	-25.1999	-187.807	46.1459	-59.9931	-187.155	18.8806	-66.5701	-182.963	4.47615	-33.3365	-205.41	58.9112	-41.1585	-208.605	63.962	-68.013	-206.145	66.1976	-91.2555	-188.519	59.9879	1.18731	-189.195	47.0512	27.5158	-154.989	53.6433	13.4719	
45	0.375	-123.881	4.17953	8.54437	-107.077	-6.53623	-15.2486	-94.98	-14.5038	-36.4257	-84.4291	-21.8303	-52.8191	-134.753	3.93242	-63.1554	-138.867	-27.5562	-56.0319	-140.858	-17.9143	-24.5983	-155.657	3.98915	-66.1982	-162.082	-26.238	-54.5033	-158.033	-15.2881	-19.2204	-171.995	9.00521	-62.9842	-177.144	-20.5462	-59.5755	-172.107	-18.8349	-22.3475	-192.06	27.1844	-55.9984	-196.858	21.5537	-75.9585	-196.313	16.0256	-96.5512	-176.228	42.23	-11.5592	-173.711	40.4431	19.5428	-141.368	35.009	3.70716	
46	0.383333	-119.113	-5.16013	10.1447	-101.783	-21.3541	-4.80704	-87.9835	-33.2932	-24.6528	-76.858	-45.1508	-42.2051	-130.131	-30.3376	-55.146	-130.438	-59.6933	-40.8581	-135.587	-39.0102	-12.9568	-149.183	-35.9147	-56.9008	-148.325	-61.4208	-33.4179	-150.219	-35.1483	-7.12529	-173.802	-33.4258	-52.9955	-166.823	-60.6388	-37.7288	-165.888	-44.6883	-6.77132	-190.19	-17.6755	-53.5028	-190.129	-28.1941	-66.8444	-190.605	-45.1303	-84.1815	-173.945	14.7249	-19.0373	-177.718	22.4316	12.8457	-141.826	18.2216	-2.25341	
47	0.391667	-125.232	2.49276	12.0583	-107.802	-12.1966	-3.32932	-81.9365	-18.3574	-21.0761	-66.8014	-26.154	-30.0805	-124.576	-43.9967	-46.8596	-112.3	-62.4038	-27.2442	-121.805	-38.8729	-2.47485	-143.857	-51.9449	-44.4086	-132.774	-71.8794	-18.1547	-140.629	-39.1323	3.82171	-160.871	-62.4345	-38.0027	-147.645	-76.2285	-16.9426	-151.686	-52.3992	9.17509	-183.99	-49.939	-39.2665	-179.8	-68.9824	-53.5621	-170.931	-88.5612	-65.6436	-184.617	-8.7401	-15.0282	-188.751	6.62099	6.57232	-156.14	12.7081	-6.78596	
